<svg width="18" height="13" viewBox="0 0 18 13" fill="none" xmlns="http://www.w3.org/2000/svg">
<g filter="url(#filter0_d)">
<path d="M9 6C10.6575 6 12 4.6575 12 3C12 1.3425 10.6575 0 9 0C7.3425 0 6 1.3425 6 3C6 4.6575 7.3425 6 9 6ZM9 7.5C6.9975 7.5 3 8.505 3 10.5V11.25C3 11.6625 3.3375 12 3.75 12H14.25C14.6625 12 15 11.6625 15 11.25V10.5C15 8.505 11.0025 7.5 9 7.5Z" fill="#212121"/>
</g>
<defs>
<filter id="filter0_d" x="-1" y="0" width="20" height="20" filterUnits="userSpaceOnUse" color-interpolation-filters="sRGB">
<feFlood flood-opacity="0" result="BackgroundImageFix"/>
<feColorMatrix in="SourceAlpha" type="matrix" values="0 0 0 0 0 0 0 0 0 0 0 0 0 0 0 0 0 0 127 0"/>
<feOffset dy="4"/>
<feGaussianBlur stdDeviation="2"/>
<feColorMatrix type="matrix" values="0 0 0 0 0 0 0 0 0 0 0 0 0 0 0 0 0 0 0.25 0"/>
<feBlend mode="normal" in2="BackgroundImageFix" result="effect1_dropShadow"/>
<feBlend mode="normal" in="SourceGraphic" in2="effect1_dropShadow" result="shape"/>
</filter>
</defs>
</svg>
